<?xml version="1.0" encoding="UTF-8" standalone="no"?>
<!DOCTYPE svg PUBLIC "-//W3C//DTD SVG 1.1//EN" "http://www.w3.org/Graphics/SVG/1.1/DTD/svg11.dtd">
<svg xmlns="http://www.w3.org/2000/svg" version="1.1" viewBox="0.00 0.00 719.00 719.00">
<g stroke-width="2.00" fill="none" stroke-linecap="butt">
<path stroke="#808080" vector-effect="non-scaling-stroke" d="
  M 311.74 302.62
  Q 310.45 302.09 309.94 303.39
  L 309.43 304.74
  Q 308.84 306.26 310.36 306.87
  Q 329.90 314.75 332.95 333.90
  C 333.38 336.59 333.28 339.48 333.44 342.14
  Q 333.50 343.08 334.43 343.24
  L 336.91 343.65
  Q 337.94 343.82 337.94 342.78
  Q 337.99 313.47 311.74 302.62"
/>
<path stroke="#808080" vector-effect="non-scaling-stroke" d="
  M 285.96 322.98
  L 298.11 323.72
  Q 299.83 323.82 300.27 322.15
  L 302.79 312.36
  A 0.47 0.47 0.0 0 0 302.34 311.77
  L 269.77 311.22
  A 1.01 1.00 -89.4 0 0 268.75 312.23
  L 268.76 393.50
  A 0.74 0.74 0.0 0 0 269.50 394.24
  L 283.51 394.25
  Q 284.78 394.25 284.78 392.99
  L 284.76 369.79
  A 1.34 1.33 2.7 0 1 286.23 368.46
  Q 300.40 369.91 312.51 365.59
  Q 325.87 360.83 328.94 347.36
  A 0.70 0.70 0.0 0 0 328.29 346.50
  L 313.73 345.78
  A 1.44 1.44 0.0 0 0 312.35 346.61
  C 307.42 357.08 295.54 358.02 285.46 356.34
  A 0.84 0.84 0.0 0 1 284.75 355.51
  L 284.82 324.04
  A 1.07 1.07 0.0 0 1 285.96 322.98"
/>
<path stroke="#808080" vector-effect="non-scaling-stroke" d="
  M 307.26 312.36
  L 307.10 312.67
  Q 306.21 314.41 307.89 315.41
  C 311.01 317.25 314.32 318.78 316.91 321.31
  Q 324.91 329.15 324.47 341.50
  Q 324.45 342.09 325.01 342.27
  Q 326.49 342.75 328.15 342.64
  Q 329.05 342.57 329.05 341.67
  Q 328.92 320.00 309.60 311.53
  Q 308.04 310.84 307.26 312.36"
/>
<path stroke="#808080" vector-effect="non-scaling-stroke" d="
  M 81.81 324.37
  C 75.56 316.91 66.37 312.79 56.75 315.65
  C 49.38 317.84 42.98 323.75 40.50 330.98
  C 37.13 340.79 40.97 348.91 49.12 354.67
  C 53.45 357.73 57.90 358.30 62.93 359.25
  C 67.79 360.17 72.74 363.75 72.79 369.03
  Q 72.83 372.92 70.08 375.43
  C 64.79 380.27 57.11 378.94 51.99 373.84
  A 0.77 0.76 -40.6 0 0 51.00 373.77
  L 39.55 382.33
  Q 39.00 382.74 39.45 383.26
  C 45.84 390.55 56.93 395.12 66.49 393.81
  Q 80.18 391.94 86.71 378.87
  Q 90.90 370.50 88.11 361.95
  Q 83.33 347.28 66.33 344.20
  C 63.81 343.75 61.18 344.42 58.83 342.95
  C 54.69 340.37 52.90 335.13 57.47 331.74
  C 61.93 328.43 65.33 330.69 69.28 333.26
  A 1.27 1.26 43.3 0 0 70.71 333.22
  L 81.71 325.17
  Q 82.19 324.82 81.81 324.37"
/>
<path stroke="#808080" vector-effect="non-scaling-stroke" d="
  M 383.6247 393.8890
  A 39.43 39.24 90.4 0 0 423.1390 354.7339
  A 39.43 39.24 90.4 0 0 384.1753 315.0310
  A 39.43 39.24 90.4 0 0 344.6610 354.1861
  A 39.43 39.24 90.4 0 0 383.6247 393.8890"
/>
<path stroke="#808080" vector-effect="non-scaling-stroke" d="
  M 152.64 359.65
  Q 152.34 359.62 152.11 359.42
  Q 126.33 337.54 100.54 315.70
  Q 100.38 315.57 100.16 315.53
  Q 99.95 315.49 99.75 315.58
  A 0.45 0.44 77.3 0 0 99.50 315.98
  L 99.49 392.00
  A 0.76 0.75 -0.0 0 0 100.25 392.75
  L 114.28 392.75
  A 0.87 0.87 0.0 0 0 115.15 391.88
  Q 115.19 370.75 115.13 350.68
  Q 115.12 349.78 116.03 349.53
  A 0.45 0.44 56.7 0 1 116.43 349.62
  L 167.95 393.20
  A 0.73 0.73 0.0 0 0 169.15 392.65
  L 169.12 316.94
  Q 169.12 316.26 168.44 316.26
  L 154.20 316.24
  Q 153.39 316.24 153.39 317.05
  L 153.32 359.02
  A 0.63 0.63 0.0 0 1 152.64 359.65"
/>
<path stroke="#808080" vector-effect="non-scaling-stroke" d="
  M 233.26 382.50
  A 0.66 0.66 0.0 0 1 233.86 382.88
  L 238.31 392.36
  A 0.66 0.66 0.0 0 0 238.91 392.74
  L 254.56 392.76
  A 0.66 0.66 0.0 0 0 255.15 391.80
  L 216.18 315.95
  A 0.66 0.66 0.0 0 0 215.00 315.95
  L 176.20 391.80
  A 0.66 0.66 0.0 0 0 176.79 392.76
  L 191.41 392.74
  A 0.66 0.66 0.0 0 0 192.01 392.36
  L 196.53 382.88
  A 0.66 0.66 0.0 0 1 197.13 382.50
  L 233.26 382.50"
/>
<path stroke="#808080" vector-effect="non-scaling-stroke" d="
  M 637.50 379.50
  L 644.09 379.49
  A 1.43 1.41 -21.3 0 1 645.13 379.94
  L 656.06 391.66
  A 3.48 3.46 68.3 0 0 658.59 392.76
  L 676.95 392.75
  Q 677.92 392.75 677.26 392.03
  L 662.29 375.74
  Q 661.90 375.32 662.35 374.95
  C 664.10 373.53 666.09 372.58 667.79 371.08
  C 683.07 357.61 682.68 332.48 664.52 321.28
  C 658.39 317.50 650.69 316.14 643.57 316.03
  Q 632.72 315.86 621.84 316.41
  A 0.88 0.88 0.0 0 0 621.00 317.29
  L 621.00 392.00
  A 0.75 0.75 0.0 0 0 621.75 392.75
  L 635.49 392.75
  A 1.25 1.24 0.0 0 0 636.74 391.51
  L 636.75 380.25
  Q 636.76 379.51 637.50 379.50"
/>
<path stroke="#808080" vector-effect="non-scaling-stroke" d="
  M 607.25 345.81
  A 0.82 0.82 0.0 0 0 606.43 344.99
  L 579.57 345.01
  A 0.82 0.82 0.0 0 1 578.75 344.19
  L 578.78 331.32
  A 0.82 0.82 0.0 0 1 579.61 330.50
  L 602.38 330.78
  A 0.82 0.82 0.0 0 0 603.21 329.96
  L 603.25 317.07
  A 0.82 0.82 0.0 0 0 602.43 316.25
  L 563.86 316.25
  A 0.82 0.82 0.0 0 0 563.04 317.07
  L 563.05 391.93
  A 0.82 0.82 0.0 0 0 563.87 392.75
  L 609.13 392.75
  A 0.82 0.82 0.0 0 0 609.95 391.93
  L 609.91 379.04
  A 0.82 0.82 0.0 0 0 609.08 378.22
  L 579.63 378.51
  A 0.82 0.82 0.0 0 1 578.80 377.69
  L 578.75 359.80
  A 0.82 0.82 0.0 0 1 579.57 358.98
  L 606.44 359.02
  A 0.82 0.82 0.0 0 0 607.26 358.20
  L 607.25 345.81"
/>
<path stroke="#808080" vector-effect="non-scaling-stroke" d="
  M 491.95 356.95
  A 0.60 0.59 45.3 0 1 493.05 356.96
  Q 500.41 374.73 507.38 391.64
  C 507.82 392.69 508.69 393.31 509.66 393.79
  Q 511.02 394.47 511.66 393.10
  Q 528.84 356.95 545.85 321.03
  Q 546.34 319.99 546.42 319.23
  A 1.10 1.09 3.3 0 0 545.34 318.02
  L 527.68 317.99
  A 2.62 2.62 0.0 0 0 525.27 319.58
  L 510.67 353.63
  A 0.65 0.64 21.9 0 1 509.84 353.98
  Q 509.50 353.85 509.35 353.52
  Q 501.77 335.91 494.61 319.21
  Q 494.26 318.37 493.82 317.58
  Q 493.57 317.12 493.08 316.94
  Q 490.87 316.13 490.01 318.22
  Q 482.75 335.87 475.79 353.23
  Q 475.54 353.85 474.95 354.08
  A 0.55 0.55 0.0 0 1 474.25 353.79
  L 459.74 319.51
  A 2.46 2.46 0.0 0 0 457.49 318.01
  Q 449.00 317.97 440.25 318.02
  Q 439.00 318.02 438.72 318.58
  A 1.63 1.63 0.0 0 0 438.70 320.03
  Q 456.30 357.57 472.78 392.66
  A 2.33 2.32 -46.2 0 0 477.03 392.57
  L 491.95 356.95"
/>
<path stroke="#808080" vector-effect="non-scaling-stroke" d="
  M 319.99 341.19
  C 320.42 331.54 315.63 324.24 306.99 319.86
  Q 306.39 319.56 305.90 320.02
  L 304.66 321.19
  Q 303.11 322.64 304.89 323.80
  C 311.95 328.40 316.27 331.78 315.74 341.23
  Q 315.71 341.79 316.27 341.78
  L 319.45 341.72
  Q 319.96 341.71 319.99 341.19"
/>
<path stroke="#808080" vector-effect="non-scaling-stroke" d="
  M 301.82 331.75
  C 304.63 333.83 307.00 335.99 306.42 339.77
  Q 306.23 341.06 307.52 341.14
  L 309.72 341.29
  Q 310.99 341.38 311.02 340.10
  Q 311.24 331.88 303.63 328.42
  Q 303.17 328.21 302.80 328.56
  L 301.69 329.62
  A 1.40 1.39 -48.7 0 0 301.82 331.75"
/>
<path stroke="#808080" vector-effect="non-scaling-stroke" d="
  M 384.3687 378.7347
  A 24.29 22.97 88.8 0 0 406.8250 353.9690
  A 24.29 22.97 88.8 0 0 383.3513 330.1653
  A 24.29 22.97 88.8 0 0 360.8950 354.9310
  A 24.29 22.97 88.8 0 0 384.3687 378.7347"
/>
<path stroke="#808080" vector-effect="non-scaling-stroke" d="
  M 204.04 367.31
  A 0.63 0.63 0.0 0 0 204.62 368.21
  L 225.60 368.02
  A 0.63 0.63 0.0 0 0 226.16 367.12
  L 215.48 345.45
  A 0.63 0.63 0.0 0 0 214.34 345.46
  L 204.04 367.31"
/>
<path stroke="#808080" vector-effect="non-scaling-stroke" d="
  M 636.78 331.07
  L 636.72 364.41
  A 0.60 0.60 0.0 0 0 637.32 365.01
  L 645.92 365.02
  A 16.56 16.17 0.1 0 0 662.51 348.88
  L 662.51 346.68
  A 16.56 16.17 0.1 0 0 645.98 330.48
  L 637.38 330.47
  A 0.60 0.60 0.0 0 0 636.78 331.07"
/>
</g>
<path fill="#000000" d="
  M 0.00 0.00
  L 719.00 0.00
  L 719.00 719.00
  L 0.00 719.00
  L 0.00 0.00
  Z
  M 311.74 302.62
  Q 310.45 302.09 309.94 303.39
  L 309.43 304.74
  Q 308.84 306.26 310.36 306.87
  Q 329.90 314.75 332.95 333.90
  C 333.38 336.59 333.28 339.48 333.44 342.14
  Q 333.50 343.08 334.43 343.24
  L 336.91 343.65
  Q 337.94 343.82 337.94 342.78
  Q 337.99 313.47 311.74 302.62
  Z
  M 285.96 322.98
  L 298.11 323.72
  Q 299.83 323.82 300.27 322.15
  L 302.79 312.36
  A 0.47 0.47 0.0 0 0 302.34 311.77
  L 269.77 311.22
  A 1.01 1.00 -89.4 0 0 268.75 312.23
  L 268.76 393.50
  A 0.74 0.74 0.0 0 0 269.50 394.24
  L 283.51 394.25
  Q 284.78 394.25 284.78 392.99
  L 284.76 369.79
  A 1.34 1.33 2.7 0 1 286.23 368.46
  Q 300.40 369.91 312.51 365.59
  Q 325.87 360.83 328.94 347.36
  A 0.70 0.70 0.0 0 0 328.29 346.50
  L 313.73 345.78
  A 1.44 1.44 0.0 0 0 312.35 346.61
  C 307.42 357.08 295.54 358.02 285.46 356.34
  A 0.84 0.84 0.0 0 1 284.75 355.51
  L 284.82 324.04
  A 1.07 1.07 0.0 0 1 285.96 322.98
  Z
  M 307.26 312.36
  L 307.10 312.67
  Q 306.21 314.41 307.89 315.41
  C 311.01 317.25 314.32 318.78 316.91 321.31
  Q 324.91 329.15 324.47 341.50
  Q 324.45 342.09 325.01 342.27
  Q 326.49 342.75 328.15 342.64
  Q 329.05 342.57 329.05 341.67
  Q 328.92 320.00 309.60 311.53
  Q 308.04 310.84 307.26 312.36
  Z
  M 81.81 324.37
  C 75.56 316.91 66.37 312.79 56.75 315.65
  C 49.38 317.84 42.98 323.75 40.50 330.98
  C 37.13 340.79 40.97 348.91 49.12 354.67
  C 53.45 357.73 57.90 358.30 62.93 359.25
  C 67.79 360.17 72.74 363.75 72.79 369.03
  Q 72.83 372.92 70.08 375.43
  C 64.79 380.27 57.11 378.94 51.99 373.84
  A 0.77 0.76 -40.6 0 0 51.00 373.77
  L 39.55 382.33
  Q 39.00 382.74 39.45 383.26
  C 45.84 390.55 56.93 395.12 66.49 393.81
  Q 80.18 391.94 86.71 378.87
  Q 90.90 370.50 88.11 361.95
  Q 83.33 347.28 66.33 344.20
  C 63.81 343.75 61.18 344.42 58.83 342.95
  C 54.69 340.37 52.90 335.13 57.47 331.74
  C 61.93 328.43 65.33 330.69 69.28 333.26
  A 1.27 1.26 43.3 0 0 70.71 333.22
  L 81.71 325.17
  Q 82.19 324.82 81.81 324.37
  Z
  M 383.6247 393.8890
  A 39.43 39.24 90.4 0 0 423.1390 354.7339
  A 39.43 39.24 90.4 0 0 384.1753 315.0310
  A 39.43 39.24 90.4 0 0 344.6610 354.1861
  A 39.43 39.24 90.4 0 0 383.6247 393.8890
  Z
  M 152.64 359.65
  Q 152.34 359.62 152.11 359.42
  Q 126.33 337.54 100.54 315.70
  Q 100.38 315.57 100.16 315.53
  Q 99.95 315.49 99.75 315.58
  A 0.45 0.44 77.3 0 0 99.50 315.98
  L 99.49 392.00
  A 0.76 0.75 -0.0 0 0 100.25 392.75
  L 114.28 392.75
  A 0.87 0.87 0.0 0 0 115.15 391.88
  Q 115.19 370.75 115.13 350.68
  Q 115.12 349.78 116.03 349.53
  A 0.45 0.44 56.7 0 1 116.43 349.62
  L 167.95 393.20
  A 0.73 0.73 0.0 0 0 169.15 392.65
  L 169.12 316.94
  Q 169.12 316.26 168.44 316.26
  L 154.20 316.24
  Q 153.39 316.24 153.39 317.05
  L 153.32 359.02
  A 0.63 0.63 0.0 0 1 152.64 359.65
  Z
  M 233.26 382.50
  A 0.66 0.66 0.0 0 1 233.86 382.88
  L 238.31 392.36
  A 0.66 0.66 0.0 0 0 238.91 392.74
  L 254.56 392.76
  A 0.66 0.66 0.0 0 0 255.15 391.80
  L 216.18 315.95
  A 0.66 0.66 0.0 0 0 215.00 315.95
  L 176.20 391.80
  A 0.66 0.66 0.0 0 0 176.79 392.76
  L 191.41 392.74
  A 0.66 0.66 0.0 0 0 192.01 392.36
  L 196.53 382.88
  A 0.66 0.66 0.0 0 1 197.13 382.50
  L 233.26 382.50
  Z
  M 637.50 379.50
  L 644.09 379.49
  A 1.43 1.41 -21.3 0 1 645.13 379.94
  L 656.06 391.66
  A 3.48 3.46 68.3 0 0 658.59 392.76
  L 676.95 392.75
  Q 677.92 392.75 677.26 392.03
  L 662.29 375.74
  Q 661.90 375.32 662.35 374.95
  C 664.10 373.53 666.09 372.58 667.79 371.08
  C 683.07 357.61 682.68 332.48 664.52 321.28
  C 658.39 317.50 650.69 316.14 643.57 316.03
  Q 632.72 315.86 621.84 316.41
  A 0.88 0.88 0.0 0 0 621.00 317.29
  L 621.00 392.00
  A 0.75 0.75 0.0 0 0 621.75 392.75
  L 635.49 392.75
  A 1.25 1.24 0.0 0 0 636.74 391.51
  L 636.75 380.25
  Q 636.76 379.51 637.50 379.50
  Z
  M 607.25 345.81
  A 0.82 0.82 0.0 0 0 606.43 344.99
  L 579.57 345.01
  A 0.82 0.82 0.0 0 1 578.75 344.19
  L 578.78 331.32
  A 0.82 0.82 0.0 0 1 579.61 330.50
  L 602.38 330.78
  A 0.82 0.82 0.0 0 0 603.21 329.96
  L 603.25 317.07
  A 0.82 0.82 0.0 0 0 602.43 316.25
  L 563.86 316.25
  A 0.82 0.82 0.0 0 0 563.04 317.07
  L 563.05 391.93
  A 0.82 0.82 0.0 0 0 563.87 392.75
  L 609.13 392.75
  A 0.82 0.82 0.0 0 0 609.95 391.93
  L 609.91 379.04
  A 0.82 0.82 0.0 0 0 609.08 378.22
  L 579.63 378.51
  A 0.82 0.82 0.0 0 1 578.80 377.69
  L 578.75 359.80
  A 0.82 0.82 0.0 0 1 579.57 358.98
  L 606.44 359.02
  A 0.82 0.82 0.0 0 0 607.26 358.20
  L 607.25 345.81
  Z
  M 491.95 356.95
  A 0.60 0.59 45.3 0 1 493.05 356.96
  Q 500.41 374.73 507.38 391.64
  C 507.82 392.69 508.69 393.31 509.66 393.79
  Q 511.02 394.47 511.66 393.10
  Q 528.84 356.95 545.85 321.03
  Q 546.34 319.99 546.42 319.23
  A 1.10 1.09 3.3 0 0 545.34 318.02
  L 527.68 317.99
  A 2.62 2.62 0.0 0 0 525.27 319.58
  L 510.67 353.63
  A 0.65 0.64 21.9 0 1 509.84 353.98
  Q 509.50 353.85 509.35 353.52
  Q 501.77 335.91 494.61 319.21
  Q 494.26 318.37 493.82 317.58
  Q 493.57 317.12 493.08 316.94
  Q 490.87 316.13 490.01 318.22
  Q 482.75 335.87 475.79 353.23
  Q 475.54 353.85 474.95 354.08
  A 0.55 0.55 0.0 0 1 474.25 353.79
  L 459.74 319.51
  A 2.46 2.46 0.0 0 0 457.49 318.01
  Q 449.00 317.97 440.25 318.02
  Q 439.00 318.02 438.72 318.58
  A 1.63 1.63 0.0 0 0 438.70 320.03
  Q 456.30 357.57 472.78 392.66
  A 2.33 2.32 -46.2 0 0 477.03 392.57
  L 491.95 356.95
  Z
  M 319.99 341.19
  C 320.42 331.54 315.63 324.24 306.99 319.86
  Q 306.39 319.56 305.90 320.02
  L 304.66 321.19
  Q 303.11 322.64 304.89 323.80
  C 311.95 328.40 316.27 331.78 315.74 341.23
  Q 315.71 341.79 316.27 341.78
  L 319.45 341.72
  Q 319.96 341.71 319.99 341.19
  Z
  M 301.82 331.75
  C 304.63 333.83 307.00 335.99 306.42 339.77
  Q 306.23 341.06 307.52 341.14
  L 309.72 341.29
  Q 310.99 341.38 311.02 340.10
  Q 311.24 331.88 303.63 328.42
  Q 303.17 328.21 302.80 328.56
  L 301.69 329.62
  A 1.40 1.39 -48.7 0 0 301.82 331.75
  Z"
/>
<path fill="#ffffff" d="
  M 311.74 302.62
  Q 337.99 313.47 337.94 342.78
  Q 337.94 343.82 336.91 343.65
  L 334.43 343.24
  Q 333.50 343.08 333.44 342.14
  C 333.28 339.48 333.38 336.59 332.95 333.90
  Q 329.90 314.75 310.36 306.87
  Q 308.84 306.26 309.43 304.74
  L 309.94 303.39
  Q 310.45 302.09 311.74 302.62
  Z"
/>
<path fill="#ffffff" d="
  M 285.96 322.98
  A 1.07 1.07 0.0 0 0 284.82 324.04
  L 284.75 355.51
  A 0.84 0.84 0.0 0 0 285.46 356.34
  C 295.54 358.02 307.42 357.08 312.35 346.61
  A 1.44 1.44 0.0 0 1 313.73 345.78
  L 328.29 346.50
  A 0.70 0.70 0.0 0 1 328.94 347.36
  Q 325.87 360.83 312.51 365.59
  Q 300.40 369.91 286.23 368.46
  A 1.34 1.33 2.7 0 0 284.76 369.79
  L 284.78 392.99
  Q 284.78 394.25 283.51 394.25
  L 269.50 394.24
  A 0.74 0.74 0.0 0 1 268.76 393.50
  L 268.75 312.23
  A 1.01 1.00 -89.4 0 1 269.77 311.22
  L 302.34 311.77
  A 0.47 0.47 0.0 0 1 302.79 312.36
  L 300.27 322.15
  Q 299.83 323.82 298.11 323.72
  L 285.96 322.98
  Z"
/>
<path fill="#ffffff" d="
  M 309.60 311.53
  Q 328.92 320.00 329.05 341.67
  Q 329.05 342.57 328.15 342.64
  Q 326.49 342.75 325.01 342.27
  Q 324.45 342.09 324.47 341.50
  Q 324.91 329.15 316.91 321.31
  C 314.32 318.78 311.01 317.25 307.89 315.41
  Q 306.21 314.41 307.10 312.67
  L 307.26 312.36
  Q 308.04 310.84 309.60 311.53
  Z"
/>
<path fill="#ffffff" d="
  M 56.75 315.65
  C 66.37 312.79 75.56 316.91 81.81 324.37
  Q 82.19 324.82 81.71 325.17
  L 70.71 333.22
  A 1.27 1.26 43.3 0 1 69.28 333.26
  C 65.33 330.69 61.93 328.43 57.47 331.74
  C 52.90 335.13 54.69 340.37 58.83 342.95
  C 61.18 344.42 63.81 343.75 66.33 344.20
  Q 83.33 347.28 88.11 361.95
  Q 90.90 370.50 86.71 378.87
  Q 80.18 391.94 66.49 393.81
  C 56.93 395.12 45.84 390.55 39.45 383.26
  Q 39.00 382.74 39.55 382.33
  L 51.00 373.77
  A 0.77 0.76 -40.6 0 1 51.99 373.84
  C 57.11 378.94 64.79 380.27 70.08 375.43
  Q 72.83 372.92 72.79 369.03
  C 72.74 363.75 67.79 360.17 62.93 359.25
  C 57.90 358.30 53.45 357.73 49.12 354.67
  C 40.97 348.91 37.13 340.79 40.50 330.98
  C 42.98 323.75 49.38 317.84 56.75 315.65
  Z"
/>
<path fill="#ffffff" d="
  M 383.6247 393.8890
  A 39.43 39.24 90.4 0 1 344.6610 354.1861
  A 39.43 39.24 90.4 0 1 384.1753 315.0310
  A 39.43 39.24 90.4 0 1 423.1390 354.7339
  A 39.43 39.24 90.4 0 1 383.6247 393.8890
  Z
  M 384.3687 378.7347
  A 24.29 22.97 88.8 0 0 406.8250 353.9690
  A 24.29 22.97 88.8 0 0 383.3513 330.1653
  A 24.29 22.97 88.8 0 0 360.8950 354.9310
  A 24.29 22.97 88.8 0 0 384.3687 378.7347
  Z"
/>
<path fill="#ffffff" d="
  M 152.64 359.65
  A 0.63 0.63 0.0 0 0 153.32 359.02
  L 153.39 317.05
  Q 153.39 316.24 154.20 316.24
  L 168.44 316.26
  Q 169.12 316.26 169.12 316.94
  L 169.15 392.65
  A 0.73 0.73 0.0 0 1 167.95 393.20
  L 116.43 349.62
  A 0.45 0.44 56.7 0 0 116.03 349.53
  Q 115.12 349.78 115.13 350.68
  Q 115.19 370.75 115.15 391.88
  A 0.87 0.87 0.0 0 1 114.28 392.75
  L 100.25 392.75
  A 0.76 0.75 0.0 0 1 99.49 392.00
  L 99.50 315.98
  A 0.45 0.44 77.3 0 1 99.75 315.58
  Q 99.95 315.49 100.16 315.53
  Q 100.38 315.57 100.54 315.70
  Q 126.33 337.54 152.11 359.42
  Q 152.34 359.62 152.64 359.65
  Z"
/>
<path fill="#ffffff" d="
  M 233.26 382.50
  L 197.13 382.50
  A 0.66 0.66 0.0 0 0 196.53 382.88
  L 192.01 392.36
  A 0.66 0.66 0.0 0 1 191.41 392.74
  L 176.79 392.76
  A 0.66 0.66 0.0 0 1 176.20 391.80
  L 215.00 315.95
  A 0.66 0.66 0.0 0 1 216.18 315.95
  L 255.15 391.80
  A 0.66 0.66 0.0 0 1 254.56 392.76
  L 238.91 392.74
  A 0.66 0.66 0.0 0 1 238.31 392.36
  L 233.86 382.88
  A 0.66 0.66 0.0 0 0 233.26 382.50
  Z
  M 204.04 367.31
  A 0.63 0.63 0.0 0 0 204.62 368.21
  L 225.60 368.02
  A 0.63 0.63 0.0 0 0 226.16 367.12
  L 215.48 345.45
  A 0.63 0.63 0.0 0 0 214.34 345.46
  L 204.04 367.31
  Z"
/>
<path fill="#ffffff" d="
  M 636.75 380.25
  L 636.74 391.51
  A 1.25 1.24 -0.0 0 1 635.49 392.75
  L 621.75 392.75
  A 0.75 0.75 0.0 0 1 621.00 392.00
  L 621.00 317.29
  A 0.88 0.88 0.0 0 1 621.84 316.41
  Q 632.72 315.86 643.57 316.03
  C 650.69 316.14 658.39 317.50 664.52 321.28
  C 682.68 332.48 683.07 357.61 667.79 371.08
  C 666.09 372.58 664.10 373.53 662.35 374.95
  Q 661.90 375.32 662.29 375.74
  L 677.26 392.03
  Q 677.92 392.75 676.95 392.75
  L 658.59 392.76
  A 3.48 3.46 68.3 0 1 656.06 391.66
  L 645.13 379.94
  A 1.43 1.41 -21.3 0 0 644.09 379.49
  L 637.50 379.50
  Q 636.76 379.51 636.75 380.25
  Z
  M 636.78 331.07
  L 636.72 364.41
  A 0.60 0.60 0.0 0 0 637.32 365.01
  L 645.92 365.02
  A 16.56 16.17 0.1 0 0 662.51 348.88
  L 662.51 346.68
  A 16.56 16.17 0.1 0 0 645.98 330.48
  L 637.38 330.47
  A 0.60 0.60 0.0 0 0 636.78 331.07
  Z"
/>
<path fill="#ffffff" d="
  M 607.25 345.81
  L 607.26 358.20
  A 0.82 0.82 0.0 0 1 606.44 359.02
  L 579.57 358.98
  A 0.82 0.82 0.0 0 0 578.75 359.80
  L 578.80 377.69
  A 0.82 0.82 0.0 0 0 579.63 378.51
  L 609.08 378.22
  A 0.82 0.82 0.0 0 1 609.91 379.04
  L 609.95 391.93
  A 0.82 0.82 0.0 0 1 609.13 392.75
  L 563.87 392.75
  A 0.82 0.82 0.0 0 1 563.05 391.93
  L 563.04 317.07
  A 0.82 0.82 0.0 0 1 563.86 316.25
  L 602.43 316.25
  A 0.82 0.82 0.0 0 1 603.25 317.07
  L 603.21 329.96
  A 0.82 0.82 0.0 0 1 602.38 330.78
  L 579.61 330.50
  A 0.82 0.82 0.0 0 0 578.78 331.32
  L 578.75 344.19
  A 0.82 0.82 0.0 0 0 579.57 345.01
  L 606.43 344.99
  A 0.82 0.82 0.0 0 1 607.25 345.81
  Z"
/>
<path fill="#ffffff" d="
  M 491.95 356.95
  L 477.03 392.57
  A 2.33 2.32 -46.2 0 1 472.78 392.66
  Q 456.30 357.57 438.70 320.03
  A 1.63 1.63 0.0 0 1 438.72 318.58
  Q 439.00 318.02 440.25 318.02
  Q 449.00 317.97 457.49 318.01
  A 2.46 2.46 0.0 0 1 459.74 319.51
  L 474.25 353.79
  A 0.55 0.55 0.0 0 0 474.95 354.08
  Q 475.54 353.85 475.79 353.23
  Q 482.75 335.87 490.01 318.22
  Q 490.87 316.13 493.08 316.94
  Q 493.57 317.12 493.82 317.58
  Q 494.26 318.37 494.61 319.21
  Q 501.77 335.91 509.35 353.52
  Q 509.50 353.85 509.84 353.98
  A 0.65 0.64 21.9 0 0 510.67 353.63
  L 525.27 319.58
  A 2.62 2.62 0.0 0 1 527.68 317.99
  L 545.34 318.02
  A 1.10 1.09 3.3 0 1 546.42 319.23
  Q 546.34 319.99 545.85 321.03
  Q 528.84 356.95 511.66 393.10
  Q 511.02 394.47 509.66 393.79
  C 508.69 393.31 507.82 392.69 507.38 391.64
  Q 500.41 374.73 493.05 356.96
  A 0.60 0.59 45.3 0 0 491.95 356.95
  Z"
/>
<path fill="#ffffff" d="
  M 306.99 319.86
  C 315.63 324.24 320.42 331.54 319.99 341.19
  Q 319.96 341.71 319.45 341.72
  L 316.27 341.78
  Q 315.71 341.79 315.74 341.23
  C 316.27 331.78 311.95 328.40 304.89 323.80
  Q 303.11 322.64 304.66 321.19
  L 305.90 320.02
  Q 306.39 319.56 306.99 319.86
  Z"
/>
<path fill="#ffffff" d="
  M 306.42 339.77
  C 307.00 335.99 304.63 333.83 301.82 331.75
  A 1.40 1.39 -48.7 0 1 301.69 329.62
  L 302.80 328.56
  Q 303.17 328.21 303.63 328.42
  Q 311.24 331.88 311.02 340.10
  Q 310.99 341.38 309.72 341.29
  L 307.52 341.14
  Q 306.23 341.06 306.42 339.77
  Z"
/>
<ellipse fill="#000000" cx="0.00" cy="0.00" transform="translate(383.86,354.45) rotate(88.8)" rx="24.29" ry="22.97"/>
<path fill="#000000" d="
  M 636.78 331.07
  A 0.60 0.60 0.0 0 1 637.38 330.47
  L 645.98 330.48
  A 16.56 16.17 0.1 0 1 662.51 346.68
  L 662.51 348.88
  A 16.56 16.17 0.1 0 1 645.92 365.02
  L 637.32 365.01
  A 0.60 0.60 0.0 0 1 636.72 364.41
  L 636.78 331.07
  Z"
/>
<path fill="#000000" d="
  M 204.04 367.31
  L 214.34 345.46
  A 0.63 0.63 0.0 0 1 215.48 345.45
  L 226.16 367.12
  A 0.63 0.63 0.0 0 1 225.60 368.02
  L 204.62 368.21
  A 0.63 0.63 0.0 0 1 204.04 367.31
  Z"
/>
</svg>
